<?xml version="1.0" encoding="UTF-8"?><svg id="Outline" xmlns="http://www.w3.org/2000/svg" xmlns:xlink="http://www.w3.org/1999/xlink" viewBox="0 0 1000 1000"><defs><style>.cls-1{fill:url(#linear-gradient-2);}.cls-2{fill:#262626;}.cls-3{fill:#fff;}.cls-4{fill:#ffd300;}.cls-5{fill:url(#radial-gradient);}.cls-6{fill:url(#linear-gradient-3);}.cls-7{fill:url(#linear-gradient);}</style><linearGradient id="linear-gradient" x1="1039.99" y1="542.61" x2="1291.78" y2="871.94" gradientTransform="translate(1493.68) rotate(-180) scale(1 -1)" gradientUnits="userSpaceOnUse"><stop offset=".34" stop-color="#c2ef20"/><stop offset=".35" stop-color="#bdec20"/><stop offset=".63" stop-color="#58bc33"/><stop offset=".82" stop-color="#189e3e"/><stop offset=".91" stop-color="#009343"/></linearGradient><linearGradient id="linear-gradient-2" x1="391.61" y1="717.81" x2="574.66" y2="717.81" gradientUnits="userSpaceOnUse"><stop offset=".06" stop-color="#c2ef20"/><stop offset=".91" stop-color="#009343"/></linearGradient><radialGradient id="radial-gradient" cx="526.47" cy="312.8" fx="526.47" fy="312.8" r="596.76" gradientUnits="userSpaceOnUse"><stop offset=".34" stop-color="#b22b0b"/><stop offset=".36" stop-color="#bf3d0f"/><stop offset=".42" stop-color="#d45916"/><stop offset=".47" stop-color="#e36d1b"/><stop offset=".52" stop-color="#ec791e"/><stop offset=".57" stop-color="#f07e1f"/></radialGradient><linearGradient id="linear-gradient-3" x1="585.87" y1="559.49" x2="837.67" y2="888.82" gradientTransform="matrix(1, 0, 0, 1, 0, 0)" xlink:href="#linear-gradient"/></defs><path class="cls-7" d="M171.82,769.06c53.21,84.99,111.02,132.02,208.52,101.75,20.25-6.29,107.18-30.26,119.66-45.96-21.23-36.79-77.58-100.68-113.39-135.81-71.58-70.22-170.4-101.64-255.38-48.43-17.97,11.25-33.29,25.13-45.78,40.83,31.61,7.87,61.93,48.59,86.38,87.62Z"/><rect class="cls-1" x="459.02" y="465.63" width="126.31" height="504.36" rx="57.77" ry="57.77"/><ellipse class="cls-5" cx="526.47" cy="312.8" rx="355.21" ry="274.68"/><ellipse class="cls-4" cx="526.47" cy="312.8" rx="266.69" ry="206.23"/><ellipse class="cls-3" cx="526.47" cy="303.44" rx="193.31" ry="140.13"/><g><rect class="cls-2" x="450.93" y="251.91" width="33.38" height="103.07" rx="15.27" ry="15.27"/><rect class="cls-2" x="568.64" y="251.91" width="33.38" height="103.07" rx="15.27" ry="15.27"/></g><path class="cls-6" d="M867.74,785.94c-53.21,84.99-111.02,132.02-208.52,101.75-20.25-6.29-107.18-30.26-119.66-45.96,21.23-36.79,77.58-100.68,113.39-135.81,71.58-70.22,170.4-101.64,255.38-48.43,17.97,11.25,33.29,25.13,45.78,40.83-31.61,7.87-61.93,48.59-86.38,87.62Z"/></svg>