<?xml version="1.0" encoding="UTF-8"?><svg id="Outline" xmlns="http://www.w3.org/2000/svg" xmlns:xlink="http://www.w3.org/1999/xlink" viewBox="0 0 1000 1000"><defs><style>.cls-1{fill:url(#linear-gradient-2);}.cls-2{fill:#262626;}.cls-3{fill:#fff;}.cls-4{fill:url(#radial-gradient);}.cls-5{fill:url(#linear-gradient-3);}.cls-6{fill:url(#linear-gradient);}.cls-7{fill:#00ffec;}</style><linearGradient id="linear-gradient" x1="-1023.52" y1="538.56" x2="-771.73" y2="867.89" gradientTransform="translate(-546.32) rotate(-180) scale(1 -1)" gradientUnits="userSpaceOnUse"><stop offset=".34" stop-color="#c2ef20"/><stop offset=".35" stop-color="#bdec20"/><stop offset=".63" stop-color="#58bc33"/><stop offset=".82" stop-color="#189e3e"/><stop offset=".91" stop-color="#009343"/></linearGradient><linearGradient id="linear-gradient-2" x1="415.13" y1="713.76" x2="598.17" y2="713.76" gradientUnits="userSpaceOnUse"><stop offset=".06" stop-color="#c2ef20"/><stop offset=".91" stop-color="#009343"/></linearGradient><radialGradient id="radial-gradient" cx="549.99" cy="308.74" fx="549.99" fy="308.74" r="596.76" gradientUnits="userSpaceOnUse"><stop offset=".34" stop-color="#00096a"/><stop offset=".36" stop-color="#001b7a"/><stop offset=".4" stop-color="#00409a"/><stop offset=".44" stop-color="#005cb3"/><stop offset=".49" stop-color="#0070c5"/><stop offset=".53" stop-color="#007cd0"/><stop offset=".57" stop-color="#0081d4"/></radialGradient><linearGradient id="linear-gradient-3" x1="609.39" y1="555.44" x2="861.18" y2="884.77" gradientTransform="matrix(1, 0, 0, 1, 0, 0)" xlink:href="#linear-gradient"/></defs><path class="cls-6" d="M195.33,765.01c53.21,84.99,111.02,132.02,208.52,101.75,20.25-6.29,107.18-30.26,119.66-45.96-21.23-36.79-77.58-100.68-113.39-135.81-71.58-70.22-170.4-101.64-255.38-48.43-17.97,11.25-33.29,25.13-45.78,40.83,31.61,7.87,61.93,48.59,86.38,87.62Z"/><rect class="cls-1" x="482.53" y="461.58" width="126.31" height="504.36" rx="57.77" ry="57.77"/><ellipse class="cls-4" cx="549.99" cy="308.74" rx="355.21" ry="274.68"/><ellipse class="cls-7" cx="549.99" cy="308.74" rx="266.69" ry="206.23"/><ellipse class="cls-3" cx="549.99" cy="299.38" rx="193.31" ry="140.13"/><g><rect class="cls-2" x="474.44" y="247.85" width="33.38" height="103.07" rx="15.27" ry="15.27"/><rect class="cls-2" x="592.15" y="247.85" width="33.38" height="103.07" rx="15.27" ry="15.27"/></g><path class="cls-5" d="M891.25,781.89c-53.21,84.99-111.02,132.02-208.52,101.75-20.25-6.29-107.18-30.26-119.66-45.96,21.23-36.79,77.58-100.68,113.39-135.81,71.58-70.22,170.4-101.64,255.38-48.43,17.97,11.25,33.29,25.13,45.78,40.83-31.61,7.87-61.93,48.59-86.38,87.62Z"/></svg>