<?xml version="1.0" encoding="UTF-8"?><svg id="Outline" xmlns="http://www.w3.org/2000/svg" xmlns:xlink="http://www.w3.org/1999/xlink" viewBox="0 0 1000 1000"><defs><style>.cls-1{fill:url(#linear-gradient-2);}.cls-2{fill:#262626;}.cls-3{fill:#fff;}.cls-4{fill:url(#linear-gradient);}</style><linearGradient id="linear-gradient" x1="525.22" y1=".67" x2="518.72" y2="822.88" gradientUnits="userSpaceOnUse"><stop offset=".02" stop-color="#fff"/><stop offset=".05" stop-color="#f8dfe0"/><stop offset=".18" stop-color="#e07374"/><stop offset=".26" stop-color="#d12f30"/><stop offset=".3" stop-color="#cc1516"/><stop offset="1" stop-color="#680c11"/></linearGradient><linearGradient id="linear-gradient-2" x1="410.36" y1="601.59" x2="733.26" y2="908.05" gradientUnits="userSpaceOnUse"><stop offset=".02" stop-color="#f4e3ab"/><stop offset=".61" stop-color="#dab37e"/><stop offset="1" stop-color="#c96"/></linearGradient></defs><path class="cls-4" d="M932.96,428c0,67.63-23.72,130.66-64.64,183.67-73.05,94.68-200.93,157.44-346.48,157.44s-271.44-61.78-344.76-155.23c-41.98-53.47-66.36-117.31-66.36-185.88,0-52.05,14.05-101.37,39.18-145.5,65.81-115.61,207.62-195.6,371.94-195.6s307.35,80.68,372.79,197.09c24.59,43.75,38.33,92.55,38.33,144.01Z"/><path class="cls-1" d="M750.05,670.05v85.36c0,58.66-99.65,106.22-222.59,106.22s-222.59-47.56-222.59-106.22v-85.36c0-58.67,99.65-106.22,222.59-106.22s222.59,47.55,222.59,106.22Z"/><circle class="cls-3" cx="527.46" cy="317.02" r="172.9"/><path class="cls-3" d="M933.53,428c0,67.63-23.72,130.66-64.64,183.67-60.69-27.3-102.95-88.29-102.95-159.16,0-80.71,54.82-148.62,129.26-168.52,24.59,43.75,38.33,92.55,38.33,144.01Z"/><path class="cls-3" d="M284.16,452.51c0,72.85-44.65,135.26-108.08,161.37-41.98-53.47-66.36-117.31-66.36-185.88,0-52.05,14.05-101.37,39.18-145.5,77.48,17.78,135.26,87.15,135.26,170.01Z"/><g><rect class="cls-2" x="442.25" y="647.57" width="37.65" height="116.26" rx="18.82" ry="18.82"/><rect class="cls-2" x="575.02" y="647.57" width="37.65" height="116.26" rx="18.82" ry="18.82"/></g></svg>