<?xml version="1.0" encoding="UTF-8"?><svg id="Outline" xmlns="http://www.w3.org/2000/svg" xmlns:xlink="http://www.w3.org/1999/xlink" viewBox="0 0 1000 1000"><defs><style>.cls-1{fill:#262626;}.cls-2{fill:url(#radial-gradient);}</style><radialGradient id="radial-gradient" cx="510.09" cy="485.53" fx="267.74" fy="471.92" r="417.48" gradientUnits="userSpaceOnUse"><stop offset=".09" stop-color="#fffc9f"/><stop offset=".24" stop-color="#fded6b"/><stop offset=".45" stop-color="#fad928"/><stop offset=".55" stop-color="#fad20e"/><stop offset="1" stop-color="#ffaf00"/></radialGradient></defs><path class="cls-2" d="M526.38,90.04l104.27,239.28c3.48,7.99,10.94,13.53,19.59,14.57l266.08,31.89,5.99,.58c15.14,1.61,20.96,21.53,8.09,30.88l-201.34,181.75c-6.59,5.95-9.45,14.99-7.49,23.65l58.36,257.71c5.13,15.78-12.93,28.9-26.36,19.15l-231.12-134.53c-7.63-4.44-17.07-4.44-24.7,0l-231.12,134.53c-13.05,9.48-30.49-2.66-26.73-17.85l1.01-4.64,49.27-258.38c1.59-8.31-1.22-16.86-7.43-22.61L92.78,410.01l-4.56-4.04c-11.01-9.99-4.56-28.87,10.62-29.68,.68-.04,1.36-.07,2.04-.16l257.53-33.86c8.17-1.07,15.25-6.17,18.86-13.57l116.08-237.73c.3-.61,.55-1.25,.79-1.89,5.71-14.81,27.22-14.49,32.24,.97Z"/><g><rect class="cls-1" x="416.88" y="400.77" width="41.19" height="127.18" rx="18.82" ry="18.82"/><rect class="cls-1" x="562.11" y="400.77" width="41.19" height="127.18" rx="18.82" ry="18.82"/></g></svg>