<?xml version="1.0" encoding="UTF-8"?><svg id="Outline" xmlns="http://www.w3.org/2000/svg" xmlns:xlink="http://www.w3.org/1999/xlink" viewBox="0 0 1000 1000"><defs><style>.cls-1{fill:#262626;}.cls-2{fill:#d05708;}.cls-3{fill:none;}.cls-4{fill:#ff7800;}.cls-5{fill:url(#linear-gradient);}.cls-6{fill:url(#tanooki_patterns);}</style><linearGradient id="linear-gradient" x1="531.73" y1="890.93" x2="487.62" y2="754.58" gradientUnits="userSpaceOnUse"><stop offset=".01" stop-color="#d35c00"/><stop offset=".93" stop-color="#974200"/></linearGradient><pattern id="tanooki_patterns" x="0" y="0" width="849.25" height="686.4" patternTransform="translate(-5241.79 -1128.22)" patternUnits="userSpaceOnUse" viewBox="0 0 849.25 686.4"><g><rect class="cls-3" width="849.25" height="686.4"/><rect class="cls-2" y="514.8" width="849.25" height="171.6"/><g><rect class="cls-2" y="171.6" width="849.25" height="171.6"/><rect class="cls-4" y="343.2" width="849.25" height="171.6"/></g><rect class="cls-4" width="849.25" height="171.6"/></g></pattern></defs><path class="cls-5" d="M555.01,981.06h-31.83c-10.85,0-20.45-6.95-23.89-17.24-8.26-24.77-16.44-59.59-16.15-101.54,.28-39.94,8.15-73.19,16.17-97.21,3.43-10.26,13.04-17.17,23.87-17.17h0c13.75,0,24.95,11.03,25.16,24.77,.44,28.95,3.16,62.72,10.38,99.82,5.45,27.97,12.54,53.16,20.11,75.28,5.59,16.33-6.55,33.29-23.81,33.29Z"/><path class="cls-6" d="M910.55,484.3c0,180.98-127.11,327.7-283.92,327.7-39.64,0-77.38-9.38-111.65-26.32-40.22,24.05-85.96,37.64-134.47,37.64-160.75,0-291.07-149.25-291.07-333.36,0-87.42,29.38-166.98,77.45-226.43,0,0,0-.01,0-.02,.15-.25,1.64-2.75,4.8-7.15,17.77,48.45,64.31,83.03,118.93,83.03,62.94,0,115.16-45.92,124.98-106.09v-.03s0-.06,.02-.1c.14-.69,.55-2.86,.84-6.12,0-.08,.01-.17,.02-.25,1.78-21.19-1.9-86.28-113.35-91.41l52.66-31.24c40.64-24.05,89.29-49.16,147.26-74.06,0,0,190.26,71.5,315.31,212.53,.02,.02,.03,.04,.05,.05,10.57,11.91,20.67,24.34,30.14,37.24,.02,.02,.04,.04,.05,.06,38.77,56.03,61.94,127.05,61.94,204.33Z"/><g><rect class="cls-1" x="406.79" y="380.07" width="41.19" height="127.18" rx="18.82" ry="18.82"/><rect class="cls-1" x="552.03" y="380.07" width="41.19" height="127.18" rx="18.82" ry="18.82"/></g></svg>